<svg width="49" height="58" viewBox="0 0 49 58" fill="none" xmlns="http://www.w3.org/2000/svg">
<path d="M20.9269 0.00109664C20.4587 -0.000621425 19.9892 -0.000320768 19.5183 0.00199861C17.2519 0.0134667 14.9493 0.0782805 12.627 0.172087L13.2989 3.37966C15.7173 3.08201 18.3686 2.86038 21.0197 2.74956C22.456 2.68952 23.8835 2.65782 25.2682 2.66581C29.4224 2.68939 33.1915 3.06912 35.6575 4.10924L36.7119 4.5543L36.2411 5.6734C32.8012 13.8537 32.0057 21.7457 32.5447 29.4891C32.8108 20.2994 36.3198 12.1259 40.9264 1.64773C34.6581 0.513809 27.9492 0.0266098 20.9269 0.00109664ZM24.2453 4.99937C23.2107 5.00027 22.1561 5.02308 21.1015 5.06714C16.1688 5.27331 11.2533 5.90341 8.04968 6.62577C11.6283 13.8518 14.5233 21.0945 16.3927 28.155C16.6252 28.1466 16.858 28.1486 17.0903 28.1608C17.5659 28.1862 18.0363 28.2565 18.496 28.3657C16.5932 21.743 14.4259 15.6349 11.7317 9.53608L11.1229 8.15811L12.5061 7.89164C15.981 7.22185 19.5676 6.96259 22.9811 6.96143C23.2088 6.96143 23.4355 6.96247 23.6615 6.96453C25.8305 6.98514 27.9209 7.1073 29.8576 7.29117L31.1661 7.41552L30.7844 8.78357C28.5709 16.7162 28.1374 25.2355 29.3889 33.3409C29.4099 33.3618 29.4306 33.3829 29.4511 33.4041C29.9025 33.2319 30.3247 33.0564 30.7183 32.8688C29.7413 24.1848 30.1741 15.2257 33.823 5.9123C31.7868 5.34753 28.6828 5.05232 25.2721 5.00594C24.9299 5.00133 24.5876 4.99905 24.2453 4.99937ZM41.4023 5.95096C37.738 14.3981 35.1354 21.1674 34.7088 28.4751C37.0807 19.8674 41.6653 12.1512 46.8895 7.19376C45.0761 6.70132 43.2456 6.28673 41.4023 5.95096ZM6.48804 8.3385C4.26744 8.83691 2.09821 9.46959 0 10.3437C1.02105 11.3076 2.8669 13.1006 5.10644 15.4836C6.13719 14.3287 7.18843 13.1877 8.28488 12.1502C7.70414 10.8695 7.10512 9.59883 6.48804 8.3385ZM23.2991 9.30259C21.687 9.29409 20.0367 9.34434 18.3804 9.4692C18.2067 11.2322 17.2488 12.8815 16.1048 14.5036C17.9314 19.2028 19.5089 23.9979 20.929 29.0891C23.1041 29.7875 25.2559 30.6131 26.999 31.6023C26.3515 26.1314 26.4401 20.5256 27.2807 15.0435C25.7555 13.3284 24.961 11.4239 24.8974 9.33004C24.3647 9.3146 23.832 9.30545 23.2991 9.30259ZM44.8444 12.7797C41.9172 16.5552 39.3378 21.2838 37.5801 26.427C40.8073 21.4297 44.7758 17.5319 49 14.7785C47.6238 14.0904 46.2384 13.424 44.8444 12.7797ZM9.24615 14.3207C7.51868 16.02 5.8118 18.0597 4.03425 20.0028C7.85626 22.4757 11.1116 25.4041 13.7673 28.7211C13.9321 28.6533 14.0987 28.5924 14.2662 28.5368C13.0235 23.8857 11.3206 19.1262 9.24615 14.3207ZM36.8719 30.3956C34.931 32.9453 33.1038 34.2915 30.5877 35.3655C30.8707 36.5535 30.4504 37.9175 29.4829 38.9607C28.9137 39.5741 28.1986 40.2734 27.1529 40.7279C27.3038 40.8251 27.4577 40.9166 27.6145 41.002C29.078 41.797 31.6636 41.5406 34.0656 40.3514C36.4602 39.1659 38.5994 37.1182 39.3922 35.0437C39.7896 33.8776 39.5059 33.2694 38.8102 32.3775C38.315 31.7429 37.5916 31.103 36.8719 30.3956ZM16.7399 30.4711C15.4715 30.4585 14.1834 30.8569 13.1189 31.7287C11.605 32.9687 10.4379 35.1799 10.4275 38.9361V38.9618L10.4263 38.9876C10.0807 46.8968 10.6157 50.5459 11.6757 52.5257C12.6113 54.2732 14.1673 55.1098 16.4436 56.6483C16.552 56.3383 16.6649 55.957 16.7709 55.476C17.0404 54.252 17.2634 52.5709 17.4047 50.7116C17.6875 46.9931 17.6462 42.528 17.1733 39.315L16.9234 37.6154L18.4641 38.0013C22.2064 38.9385 24.3471 39.0492 25.5899 38.8106C26.833 38.5717 27.2543 38.0989 27.9835 37.3127C28.6688 36.5742 28.6561 36.3083 28.5109 35.8926C28.3657 35.4768 27.7831 34.7916 26.7946 34.136C24.8175 32.8247 21.4579 31.609 18.3177 30.7024C17.8027 30.554 17.2726 30.4763 16.7399 30.4711ZM39.1234 39.4157C37.9382 40.6725 36.4796 41.7042 34.9477 42.4627C32.464 43.6922 29.732 44.2547 27.4655 43.4359C26.6653 43.7601 26.2005 44.1326 25.966 44.441C25.6443 44.8641 25.6241 45.1754 25.7332 45.6213C25.8422 46.0671 26.167 46.5965 26.5687 46.9774C26.9704 47.3582 27.4477 47.5562 27.6292 47.5654C33.1682 47.8518 35.5654 46.1214 38.5519 44.1143C39.4229 43.5291 39.7562 42.3435 39.6728 41.1596C39.631 40.5676 39.4727 40.0113 39.2901 39.661C39.2447 39.5716 39.1887 39.4891 39.1234 39.4157ZM19.452 40.5877C19.7748 43.8178 19.7802 47.5863 19.528 50.9029C19.3804 52.845 19.1522 54.6112 18.8428 56.0165C18.7082 56.628 18.5601 57.1703 18.3812 57.6477L35.7455 56.8146C35.5495 56.0223 35.3497 55.2266 35.15 54.4306C34.4829 54.6723 33.801 54.8628 33.1093 55.0006L33.1145 55.0947L32.1302 55.1614C31.524 55.2405 30.893 55.2842 30.2383 55.2892L20.3119 55.9606L20.607 54.465C21.5476 49.6966 21.6344 45.4981 21.0542 40.9051C20.5182 40.8106 19.9842 40.7048 19.452 40.5877ZM23.2365 41.1913C23.7038 45.306 23.6476 49.2331 22.9517 53.4582L25.232 53.3041C24.8743 52.7298 24.6286 52.0817 24.5099 51.3999C24.3565 50.5134 24.4419 49.5266 24.9747 48.7107C24.9982 48.6745 25.0237 48.6398 25.0489 48.6049C24.4279 47.9806 23.9092 47.1795 23.6741 46.218C23.4239 45.1944 23.5802 43.9412 24.3248 42.9619C24.5709 42.6384 24.8684 42.3465 25.2177 42.0836C24.9087 41.8156 24.6379 41.5314 24.404 41.2355C24.0413 41.2382 23.653 41.2235 23.2365 41.1913ZM38.9401 46.5755C36.1636 48.412 33.0441 50.1674 27.5281 49.8824C27.3481 49.8728 27.1692 49.8463 26.9933 49.8031C26.8474 49.8744 26.7695 49.965 26.7114 50.054C26.5974 50.2286 26.53 50.5437 26.6038 50.9706C26.7515 51.8245 27.4945 52.7602 28.1864 52.8478C33.0851 53.468 36.4697 51.7235 38.5248 49.6939C39.4718 48.7586 39.4798 48.1605 39.3404 47.5097C39.2705 47.1846 39.1167 46.8694 38.9401 46.5755ZM38.149 52.8973C37.8201 53.1217 37.4826 53.3306 37.1373 53.5236C37.3326 54.3033 37.5284 55.083 37.7217 55.8628L40.0796 55.4025C39.4712 54.8372 38.9951 54.2488 38.613 53.6635C38.4423 53.402 38.2919 53.1479 38.149 52.8973Z" fill="#1E3A8A"/>
</svg>
