<svg width="25" height="25" viewBox="0 0 25 25" fill="none" xmlns="http://www.w3.org/2000/svg">
<path d="M21.0047 12.4967C21.0065 17.1967 17.2079 20.9982 12.5079 21C7.80793 21.0018 4.00648 17.2033 4.00468 12.5033C4.00288 7.80326 7.80142 4.0018 12.5014 4C17.2014 3.9982 21.0029 7.79675 21.0047 12.4967ZM5.00468 12.5029C5.00627 16.6529 8.35755 20.0016 12.5076 20C16.6576 19.9984 20.0063 16.6471 20.0047 12.4971C20.0031 8.34713 16.6518 4.99841 12.5018 5C8.35181 5.00159 5.00309 8.35288 5.00468 12.5029Z" fill="white"/>
<path d="M17.2048 12.4982L12.3566 17.3501L11.6563 16.6503L15.8048 12.4987L11.6532 8.35033L12.3529 7.65006L17.2048 12.4982Z" fill="white"/>
<path d="M8.00488 13.0017L8.0045 12.0017L16.5045 11.9985L16.5049 12.9985L8.00488 13.0017Z" fill="white"/>
</svg>
