<svg width="41" height="41" viewBox="0 0 41 41" fill="none" xmlns="http://www.w3.org/2000/svg">
<g clip-path="url(#clip0_1_296)">
<path d="M20.6768 -9.00998e-05C21.3482 -9.00998e-05 22.0093 0.0434724 22.6243 0.145972C23.2302 0.224024 23.8279 0.356091 24.4103 0.540597C24.9912 0.714847 25.5669 0.939493 26.1375 1.21453C26.6935 1.47847 27.265 1.80135 27.8364 2.15241C28.8025 2.76741 29.7532 3.26453 30.7218 3.66172C32.6282 4.42648 34.6448 4.88068 36.695 5.00703C37.7319 5.08391 38.8056 5.1232 39.916 5.12491V15.3749C39.916 17.3207 39.6675 19.1708 39.1703 20.9253C38.6927 22.658 38.0142 24.329 37.1485 25.9042C36.2866 27.4773 35.2666 28.9584 34.1043 30.3245C32.9249 31.7224 31.6472 33.0343 30.281 34.2503C28.8956 35.4683 27.4383 36.6021 25.9171 37.6456C24.3933 38.7048 22.8609 39.6811 21.32 40.5745L20.705 40.941L20.09 40.5745C18.5093 39.6597 16.9655 38.6826 15.4621 37.6456C13.9327 36.6133 12.4747 35.479 11.0982 34.2503C9.73285 33.0342 8.45605 31.7223 7.27747 30.3245C6.1191 28.9519 5.09457 27.4718 4.21785 25.9042C3.36777 24.3217 2.68995 22.6525 2.19604 20.9253C1.69907 19.1174 1.45248 17.2498 1.46316 15.3749V5.12491C2.57358 5.1232 3.64812 5.08391 4.68679 5.00703C5.71108 4.93741 6.72869 4.79093 7.73104 4.56885C8.71247 4.34847 9.69391 4.05635 10.66 3.66172C11.6622 3.25661 12.6233 2.75634 13.53 2.16778C14.6575 1.43491 15.8003 0.894222 16.9278 0.538035C18.1422 0.166189 19.4069 -0.0153373 20.6768 -9.00998e-05ZM37.3382 7.64385C35.3985 7.54891 33.4769 7.22463 31.6135 6.67778C29.7607 6.12364 27.9956 5.3101 26.3707 4.26135C25.5276 3.7094 24.6128 3.27572 23.6518 2.97241C22.6914 2.68274 21.6928 2.53934 20.6896 2.54703C19.679 2.54087 18.673 2.68422 17.7043 2.97241C16.7422 3.26667 15.8287 3.70098 14.9932 4.26135C13.3649 5.31477 11.5953 6.13181 9.73747 6.68803C7.92152 7.21591 6.01758 7.53878 4.02566 7.65666V15.3877C4.02566 17.0841 4.24604 18.7138 4.68679 20.277C5.1362 21.8289 5.75492 23.3267 6.53179 24.7434C7.31829 26.1747 8.24536 27.5241 9.29929 28.7717C10.3678 30.0298 11.5082 31.2009 12.7382 32.313C13.9682 33.4252 15.2571 34.4553 16.605 35.4034C17.9665 36.3532 19.3281 37.2219 20.6896 38.0095C22.0835 37.1994 23.442 36.3299 24.7614 35.4034C26.1198 34.4579 27.4157 33.4256 28.641 32.313C29.871 31.2009 31.0139 30.0298 32.0825 28.7717C33.1364 27.5241 34.0635 26.1747 34.85 24.7434C35.6229 23.3283 36.2324 21.8298 36.6668 20.277C37.1214 18.6873 37.3475 17.0411 37.3382 15.3877V7.64385Z" fill="#1E3A8A"/>
<path fill-rule="evenodd" clip-rule="evenodd" d="M30.2298 12.0668L29.1023 11.0981L28.0619 11.1878L16.8894 24.3796L13.0841 18.9471L12.0591 18.7728L10.8727 19.621L10.6959 20.646L15.5877 27.6314L16.1437 27.9389L17.3148 28.0106L17.9144 27.7493L30.3041 13.1046L30.2298 12.0668Z" fill="#1E3A8A"/>
</g>
<defs>
<clipPath id="clip0_1_296">
<rect width="41" height="41" fill="white"/>
</clipPath>
</defs>
</svg>
